<?xml version="1.0" encoding="UTF-8" standalone="no"?><svg xmlns="http://www.w3.org/2000/svg" xmlns:xlink="http://www.w3.org/1999/xlink" contentStyleType="text/css" height="216px" preserveAspectRatio="none" style="width:673px;height:216px;background:#FFFFFF;" version="1.1" viewBox="0 0 673 216" width="673px" zoomAndPan="magnify"><defs/><g><!--cluster GHA--><g id="cluster_GHA"><rect fill="none" height="203" rx="2.5" ry="2.5" style="stroke:#181818;stroke-width:1.0;" width="660" x="7" y="7"/><path d="M48,7 L48,16.4883 L38,26.4883 L7,26.4883 " fill="none" style="stroke:#181818;stroke-width:1.0;"/><text fill="#000000" font-family="sans-serif" font-size="14" font-weight="bold" lengthAdjust="spacing" textLength="31" x="10" y="21.5352">GHA</text></g><!--entity dbuild--><g id="elem_dbuild"><rect fill="#F1F1F1" height="46.4883" rx="2.5" ry="2.5" style="stroke:#181818;stroke-width:0.5;" width="126" x="198" y="42"/><rect fill="#F1F1F1" height="10" style="stroke:#181818;stroke-width:0.5;" width="15" x="304" y="47"/><rect fill="#F1F1F1" height="2" style="stroke:#181818;stroke-width:0.5;" width="4" x="302" y="49"/><rect fill="#F1F1F1" height="2" style="stroke:#181818;stroke-width:0.5;" width="4" x="302" y="53"/><text fill="#000000" font-family="sans-serif" font-size="14" lengthAdjust="spacing" textLength="86" x="213" y="75.5352">Drivers Build</text></g><!--entity buildsupa--><g id="elem_buildsupa"><rect fill="#F1F1F1" height="46.4883" rx="2.5" ry="2.5" style="stroke:#181818;stroke-width:0.5;" width="272" x="379" y="148"/><rect fill="#F1F1F1" height="10" style="stroke:#181818;stroke-width:0.5;" width="15" x="631" y="153"/><rect fill="#F1F1F1" height="2" style="stroke:#181818;stroke-width:0.5;" width="4" x="629" y="155"/><rect fill="#F1F1F1" height="2" style="stroke:#181818;stroke-width:0.5;" width="4" x="629" y="159"/><text fill="#000000" font-family="sans-serif" font-size="14" lengthAdjust="spacing" textLength="232" x="394" y="181.5352">Build and push support-packages</text></g><!--entity push--><g id="elem_push"><rect fill="#F1F1F1" height="46.4883" rx="2.5" ry="2.5" style="stroke:#181818;stroke-width:0.5;" width="156" x="188" y="148"/><rect fill="#F1F1F1" height="10" style="stroke:#181818;stroke-width:0.5;" width="15" x="324" y="153"/><rect fill="#F1F1F1" height="2" style="stroke:#181818;stroke-width:0.5;" width="4" x="322" y="155"/><rect fill="#F1F1F1" height="2" style="stroke:#181818;stroke-width:0.5;" width="4" x="322" y="159"/><text fill="#000000" font-family="sans-serif" font-size="14" lengthAdjust="spacing" textLength="116" x="203" y="181.5352">Push new drivers</text></g><!--entity collector-slim--><g id="elem_collector-slim"><rect fill="#F1F1F1" height="46.4883" rx="2.5" ry="2.5" style="stroke:#181818;stroke-width:0.5;" width="135" x="23.5" y="42"/><rect fill="#F1F1F1" height="10" style="stroke:#181818;stroke-width:0.5;" width="15" x="138.5" y="47"/><rect fill="#F1F1F1" height="2" style="stroke:#181818;stroke-width:0.5;" width="4" x="136.5" y="49"/><rect fill="#F1F1F1" height="2" style="stroke:#181818;stroke-width:0.5;" width="4" x="136.5" y="53"/><text fill="#000000" font-family="sans-serif" font-size="14" lengthAdjust="spacing" textLength="95" x="38.5" y="75.5352">collector-slim</text></g><!--entity collector-full--><g id="elem_collector-full"><rect fill="#F1F1F1" height="46.4883" rx="2.5" ry="2.5" style="stroke:#181818;stroke-width:0.5;" width="129" x="23.5" y="148"/><rect fill="#F1F1F1" height="10" style="stroke:#181818;stroke-width:0.5;" width="15" x="132.5" y="153"/><rect fill="#F1F1F1" height="2" style="stroke:#181818;stroke-width:0.5;" width="4" x="130.5" y="155"/><rect fill="#F1F1F1" height="2" style="stroke:#181818;stroke-width:0.5;" width="4" x="130.5" y="159"/><text fill="#000000" font-family="sans-serif" font-size="14" lengthAdjust="spacing" textLength="89" x="38.5" y="181.5352">collector-full</text></g><!--entity Check compiled drivers--><g id="elem_Check compiled drivers"><rect fill="#F1F1F1" height="46.4883" rx="2.5" ry="2.5" style="stroke:#181818;stroke-width:0.5;" width="200" x="359" y="42"/><rect fill="#F1F1F1" height="10" style="stroke:#181818;stroke-width:0.5;" width="15" x="539" y="47"/><rect fill="#F1F1F1" height="2" style="stroke:#181818;stroke-width:0.5;" width="4" x="537" y="49"/><rect fill="#F1F1F1" height="2" style="stroke:#181818;stroke-width:0.5;" width="4" x="537" y="53"/><text fill="#000000" font-family="sans-serif" font-size="14" lengthAdjust="spacing" textLength="160" x="374" y="75.5352">Check compiled drivers</text></g><!--link collector-slim to collector-full--><g id="link_collector-slim_collector-full"><path d="M90.36,88.31 C89.91,103.8 89.31,124.58 88.83,141.3 " fill="none" id="collector-slim-to-collector-full" style="stroke:#181818;stroke-width:1.0;"/><polygon fill="#181818" points="88.69,146.21,92.9707,137.3401,88.8471,141.2125,84.9747,137.0888,88.69,146.21" style="stroke:#181818;stroke-width:1.0;"/></g><!--link dbuild to collector-full--><g id="link_dbuild_collector-full"><path d="M223.89,88.31 C196.5,104.77 159.18,127.21 130.58,144.4 " fill="none" id="dbuild-to-collector-full" style="stroke:#181818;stroke-width:1.0;"/><polygon fill="#181818" points="126.65,146.77,136.4254,145.5695,130.9375,144.1975,132.3095,138.7096,126.65,146.77" style="stroke:#181818;stroke-width:1.0;"/></g><!--link dbuild to Check compiled drivers--><g id="link_dbuild_Check compiled drivers"><path d="M324.42,65 C333.68,65 342.93,65 352.19,65 " fill="none" id="dbuild-to-Check compiled drivers" style="stroke:#181818;stroke-width:1.0;"/><polygon fill="#181818" points="357.08,65,348.08,61,352.08,65,348.08,69,357.08,65" style="stroke:#181818;stroke-width:1.0;"/></g><!--link dbuild to push--><g id="link_dbuild_push"><path d="M262.07,88.31 C262.82,103.8 263.82,124.58 264.62,141.3 " fill="none" id="dbuild-to-push" style="stroke:#181818;stroke-width:1.0;"/><polygon fill="#181818" points="264.86,146.21,268.4436,137.0363,264.631,141.2152,260.452,137.4026,264.86,146.21" style="stroke:#181818;stroke-width:1.0;"/></g><!--link push to buildsupa--><g id="link_push_buildsupa"><path d="M344.3,171 C353.6,171 362.9,171 372.2,171 " fill="none" id="push-to-buildsupa" style="stroke:#181818;stroke-width:1.0;"/><polygon fill="#181818" points="377.13,171,368.13,167,372.13,171,368.13,175,377.13,171" style="stroke:#181818;stroke-width:1.0;"/></g><!--SRC=[ROzB3iCW34JtEOKlm1KgzIEro-wZB2Wu3Ohv24Axg7htWYFrWyeApRonnsEK5k5usiAZW_AKjy4xT0lqXsXk61FiiY4zW4oWB_NRSko3T1f2JXEa78AFYmXIpVAAYPCSB8vim-SQSNW7lMvZkixfcEoL9qAr-2WI6Jk049jlSSn40vDhj__-3r3y_OHgvXQ6KBzNjtEuHjNuhY9yhdXsBm00]--></g></svg>