<?xml version="1.0" encoding="UTF-8" standalone="no"?><svg xmlns="http://www.w3.org/2000/svg" xmlns:xlink="http://www.w3.org/1999/xlink" contentStyleType="text/css" height="683px" preserveAspectRatio="none" style="width:859px;height:683px;background:#FFFFFF;" version="1.1" viewBox="0 0 859 683" width="859px" zoomAndPan="magnify"><defs/><g><!--MD5=[6701fae3df526cca14a51b200d8bfe9a]
cluster GCP--><g id="cluster_GCP"><rect fill="none" height="220" rx="2.5" ry="2.5" style="stroke:#181818;stroke-width:1.0;" width="426" x="427" y="457"/><path d="M466,457 L466,466.4883 L456,476.4883 L427,476.4883 " fill="none" style="stroke:#181818;stroke-width:1.0;"/><text fill="#000000" font-family="sans-serif" font-size="14" font-weight="bold" lengthAdjust="spacing" textLength="29" x="430" y="471.5352">GCP</text></g><!--MD5=[acbf95ae80d0693cc6d8cb83815859b3]
cluster OSCI--><g id="cluster_OSCI"><rect fill="none" height="401" rx="2.5" ry="2.5" style="stroke:#181818;stroke-width:1.0;" width="635" x="7" y="7"/><path d="M52,7 L52,16.4883 L42,26.4883 L7,26.4883 " fill="none" style="stroke:#181818;stroke-width:1.0;"/><text fill="#000000" font-family="sans-serif" font-size="14" font-weight="bold" lengthAdjust="spacing" textLength="35" x="10" y="21.5352">OSCI</text></g><!--MD5=[05728344d6d7746cf5bd933e8bc19d4c]
cluster images--><g id="cluster_images"><rect fill="none" height="204" rx="2.5" ry="2.5" style="stroke:#181818;stroke-width:1.0;" width="332" x="109" y="50"/><path d="M171,50 L171,59.4883 L161,69.4883 L109,69.4883 " fill="none" style="stroke:#181818;stroke-width:1.0;"/><text fill="#000000" font-family="sans-serif" font-size="14" font-weight="bold" lengthAdjust="spacing" textLength="52" x="112" y="64.5352">images</text></g><!--MD5=[52a05effe668272d5671c3f0d259ac82]
cluster tests--><g id="cluster_tests"><rect fill="none" height="97" rx="2.5" ry="2.5" style="stroke:#181818;stroke-width:1.0;" width="587" x="31" y="287"/><path d="M77,287 L77,296.4883 L67,306.4883 L31,306.4883 " fill="none" style="stroke:#181818;stroke-width:1.0;"/><text fill="#000000" font-family="sans-serif" font-size="14" font-weight="bold" lengthAdjust="spacing" textLength="36" x="34" y="301.5352">tests</text></g><!--MD5=[7357bf0b102ac09de391a65b23a64b46]
entity dcache--><g id="elem_dcache"><rect fill="#F1F1F1" height="46.4883" rx="2.5" ry="2.5" style="stroke:#181818;stroke-width:0.5;" width="123" x="539.5" y="492"/><rect fill="#F1F1F1" height="10" style="stroke:#181818;stroke-width:0.5;" width="15" x="642.5" y="497"/><rect fill="#F1F1F1" height="2" style="stroke:#181818;stroke-width:0.5;" width="4" x="640.5" y="499"/><rect fill="#F1F1F1" height="2" style="stroke:#181818;stroke-width:0.5;" width="4" x="640.5" y="503"/><text fill="#000000" font-family="sans-serif" font-size="14" lengthAdjust="spacing" textLength="83" x="554.5" y="525.5352">driver cache</text></g><!--MD5=[744e66bce1f48bd974828a8425acc557]
entity dbundles--><g id="elem_dbundles"><rect fill="#F1F1F1" height="46.4883" rx="2.5" ry="2.5" style="stroke:#181818;stroke-width:0.5;" width="139" x="697.5" y="492"/><rect fill="#F1F1F1" height="10" style="stroke:#181818;stroke-width:0.5;" width="15" x="816.5" y="497"/><rect fill="#F1F1F1" height="2" style="stroke:#181818;stroke-width:0.5;" width="4" x="814.5" y="499"/><rect fill="#F1F1F1" height="2" style="stroke:#181818;stroke-width:0.5;" width="4" x="814.5" y="503"/><text fill="#000000" font-family="sans-serif" font-size="14" lengthAdjust="spacing" textLength="99" x="712.5" y="525.5352">driver bundles</text></g><!--MD5=[8ecc3956e019464df55f544a7bf7ffc9]
entity VM--><g id="elem_VM"><rect fill="#F1F1F1" height="46.4883" rx="2.5" ry="2.5" style="stroke:#181818;stroke-width:0.5;" width="61" x="443.5" y="492"/><rect fill="#F1F1F1" height="10" style="stroke:#181818;stroke-width:0.5;" width="15" x="484.5" y="497"/><rect fill="#F1F1F1" height="2" style="stroke:#181818;stroke-width:0.5;" width="4" x="482.5" y="499"/><rect fill="#F1F1F1" height="2" style="stroke:#181818;stroke-width:0.5;" width="4" x="482.5" y="503"/><text fill="#000000" font-family="sans-serif" font-size="14" lengthAdjust="spacing" textLength="21" x="458.5" y="525.5352">VM</text></g><!--MD5=[cfc0f20d50f2149d7bfabee033b3e3ce]
entity supacache--><g id="elem_supacache"><rect fill="#F1F1F1" height="46.4883" rx="2.5" ry="2.5" style="stroke:#181818;stroke-width:0.5;" width="198" x="443" y="615"/><rect fill="#F1F1F1" height="10" style="stroke:#181818;stroke-width:0.5;" width="15" x="621" y="620"/><rect fill="#F1F1F1" height="2" style="stroke:#181818;stroke-width:0.5;" width="4" x="619" y="622"/><rect fill="#F1F1F1" height="2" style="stroke:#181818;stroke-width:0.5;" width="4" x="619" y="626"/><text fill="#000000" font-family="sans-serif" font-size="14" lengthAdjust="spacing" textLength="158" x="458" y="648.5352">support package cache</text></g><!--MD5=[0f97029a618493d67e6347a0f6436d6e]
entity dbuild--><g id="elem_dbuild"><rect fill="#F1F1F1" height="46.4883" rx="2.5" ry="2.5" style="stroke:#181818;stroke-width:0.5;" width="126" x="299" y="85"/><rect fill="#F1F1F1" height="10" style="stroke:#181818;stroke-width:0.5;" width="15" x="405" y="90"/><rect fill="#F1F1F1" height="2" style="stroke:#181818;stroke-width:0.5;" width="4" x="403" y="92"/><rect fill="#F1F1F1" height="2" style="stroke:#181818;stroke-width:0.5;" width="4" x="403" y="96"/><text fill="#000000" font-family="sans-serif" font-size="14" lengthAdjust="spacing" textLength="86" x="314" y="118.5352">Drivers Build</text></g><!--MD5=[a12884c3246b20e54934b600a23acd07]
entity collector-slim--><g id="elem_collector-slim"><rect fill="#F1F1F1" height="46.4883" rx="2.5" ry="2.5" style="stroke:#181818;stroke-width:0.5;" width="135" x="125.5" y="192"/><rect fill="#F1F1F1" height="10" style="stroke:#181818;stroke-width:0.5;" width="15" x="240.5" y="197"/><rect fill="#F1F1F1" height="2" style="stroke:#181818;stroke-width:0.5;" width="4" x="238.5" y="199"/><rect fill="#F1F1F1" height="2" style="stroke:#181818;stroke-width:0.5;" width="4" x="238.5" y="203"/><text fill="#000000" font-family="sans-serif" font-size="14" lengthAdjust="spacing" textLength="95" x="140.5" y="225.5352">collector-slim</text></g><!--MD5=[e539599e5824ea488ad06f8d9563acd9]
entity collector-full--><g id="elem_collector-full"><rect fill="#F1F1F1" height="46.4883" rx="2.5" ry="2.5" style="stroke:#181818;stroke-width:0.5;" width="129" x="295.5" y="192"/><rect fill="#F1F1F1" height="10" style="stroke:#181818;stroke-width:0.5;" width="15" x="404.5" y="197"/><rect fill="#F1F1F1" height="2" style="stroke:#181818;stroke-width:0.5;" width="4" x="402.5" y="199"/><rect fill="#F1F1F1" height="2" style="stroke:#181818;stroke-width:0.5;" width="4" x="402.5" y="203"/><text fill="#000000" font-family="sans-serif" font-size="14" lengthAdjust="spacing" textLength="89" x="310.5" y="225.5352">collector-full</text></g><!--MD5=[15c36676860b13c48ab366d3564ae1e0]
entity its--><g id="elem_its"><rect fill="#F1F1F1" height="46.4883" rx="2.5" ry="2.5" style="stroke:#181818;stroke-width:0.5;" width="152" x="47" y="322"/><rect fill="#F1F1F1" height="10" style="stroke:#181818;stroke-width:0.5;" width="15" x="179" y="327"/><rect fill="#F1F1F1" height="2" style="stroke:#181818;stroke-width:0.5;" width="4" x="177" y="329"/><rect fill="#F1F1F1" height="2" style="stroke:#181818;stroke-width:0.5;" width="4" x="177" y="333"/><text fill="#000000" font-family="sans-serif" font-size="14" lengthAdjust="spacing" textLength="112" x="62" y="355.5352">integration tests</text></g><!--MD5=[3a825fca444f0a3b4231257726283052]
entity dpush--><g id="elem_dpush"><rect fill="#F1F1F1" height="46.4883" rx="2.5" ry="2.5" style="stroke:#181818;stroke-width:0.5;" width="125" x="234.5" y="322"/><rect fill="#F1F1F1" height="10" style="stroke:#181818;stroke-width:0.5;" width="15" x="339.5" y="327"/><rect fill="#F1F1F1" height="2" style="stroke:#181818;stroke-width:0.5;" width="4" x="337.5" y="329"/><rect fill="#F1F1F1" height="2" style="stroke:#181818;stroke-width:0.5;" width="4" x="337.5" y="333"/><text fill="#000000" font-family="sans-serif" font-size="14" lengthAdjust="spacing" textLength="85" x="249.5" y="355.5352">push drivers</text></g><!--MD5=[4bedd40ca94dd186e89a7014522dfc16]
entity updatesupa--><g id="elem_updatesupa"><rect fill="#F1F1F1" height="46.4883" rx="2.5" ry="2.5" style="stroke:#181818;stroke-width:0.5;" width="207" x="394.5" y="322"/><rect fill="#F1F1F1" height="10" style="stroke:#181818;stroke-width:0.5;" width="15" x="581.5" y="327"/><rect fill="#F1F1F1" height="2" style="stroke:#181818;stroke-width:0.5;" width="4" x="579.5" y="329"/><rect fill="#F1F1F1" height="2" style="stroke:#181818;stroke-width:0.5;" width="4" x="579.5" y="333"/><text fill="#000000" font-family="sans-serif" font-size="14" lengthAdjust="spacing" textLength="167" x="409.5" y="355.5352">update support package</text></g><!--MD5=[b0a952b465c99306f6b1098472279059]
link VM to supacache--><g id="link_VM_supacache"><path d="M486.47,538.19 C497.93,558.58 514.92,588.81 527.09,610.46 " fill="none" id="VM-to-supacache" style="stroke:#181818;stroke-width:1.0;stroke-dasharray:7.0,7.0;"/><polygon fill="#181818" points="529.61,614.95,528.6733,605.1458,527.1539,610.5948,521.7049,609.0755,529.61,614.95" style="stroke:#181818;stroke-width:1.0;"/><text fill="#000000" font-family="sans-serif" font-size="13" lengthAdjust="spacing" textLength="157" x="513" y="581.5684">Pushes created packages</text></g><!--MD5=[49bdb30b9c507741873307fbd1a9a558]
link dbundles to dbuild--><g id="link_dbundles_dbuild"><path d="M761.9,491.77 C747.33,433.35 699.88,274.32 599,192 C550.34,152.3 481.4,130.99 430.41,119.96 " fill="none" id="dbundles-to-dbuild" style="stroke:#181818;stroke-width:1.0;stroke-dasharray:7.0,7.0;"/><polygon fill="#181818" points="425.22,118.86,433.1902,124.6459,430.1105,119.9008,434.8555,116.8211,425.22,118.86" style="stroke:#181818;stroke-width:1.0;"/></g><!--MD5=[4a65ca9a36c08ff118088f38af591daf]
link collector-slim to collector-full--><g id="link_collector-slim_collector-full"><path d="M260.52,215 C270.45,215 280.37,215 290.3,215 " fill="none" id="collector-slim-to-collector-full" style="stroke:#181818;stroke-width:1.0;"/><polygon fill="#181818" points="295.49,215,286.49,211,290.49,215,286.49,219,295.49,215" style="stroke:#181818;stroke-width:1.0;"/></g><!--MD5=[c6f791be7e1f821e604e0e94c7202e05]
link dbuild to collector-full--><g id="link_dbuild_collector-full"><path d="M361.58,131.01 C361.27,147.14 360.85,169.15 360.52,186.45 " fill="none" id="dbuild-to-collector-full" style="stroke:#181818;stroke-width:1.0;"/><polygon fill="#181818" points="360.43,191.66,364.6092,182.7418,360.53,186.661,356.6108,182.5818,360.43,191.66" style="stroke:#181818;stroke-width:1.0;"/></g><!--MD5=[05a08ffa47b55fa352ea775d753561b9]
link collector-full to its--><g id="link_collector-full_its"><path d="M325.01,238.07 C310.8,246.38 293.99,255.4 278,262 C251.99,272.74 242.48,267.05 217,279 C194.64,289.48 171.81,305.13 154.24,318.45 " fill="none" id="collector-full-to-its" style="stroke:#181818;stroke-width:1.0;"/><polygon fill="#181818" points="149.89,321.78,159.4669,319.4814,153.859,318.739,154.6013,313.1311,149.89,321.78" style="stroke:#181818;stroke-width:1.0;"/></g><!--MD5=[ce9c734977dbbf60e786c7809f6868ff]
link dbuild to dpush--><g id="link_dbuild_dpush"><path d="M393.17,131.31 C411.15,146.2 432.12,167.5 442,192 C453.64,220.85 461.01,237.37 442,262 C423.75,285.64 403.64,265.5 377,279 C357.16,289.06 337.72,304.67 322.98,318.08 " fill="none" id="dbuild-to-dpush" style="stroke:#181818;stroke-width:1.0;"/><polygon fill="#181818" points="318.94,321.8,328.2612,318.6196,322.6085,318.4027,322.8255,312.75,318.94,321.8" style="stroke:#181818;stroke-width:1.0;"/></g><!--MD5=[ec3e442ab35289260788a854c5933d1b]
link dpush to dcache--><g id="link_dpush_dcache"><path d="M316.66,368.04 C331.72,383.62 353.79,403.83 377,416 C417.19,437.08 431.61,431.55 476,441 C496.3,445.32 503.14,440.34 522,449 C542.36,458.35 561.84,474.26 576.36,488.01 " fill="none" id="dpush-to-dcache" style="stroke:#181818;stroke-width:1.0;stroke-dasharray:7.0,7.0;"/><polygon fill="#181818" points="580.32,491.82,576.6179,482.6934,576.7208,488.3493,571.0649,488.4522,580.32,491.82" style="stroke:#181818;stroke-width:1.0;"/></g><!--MD5=[74f9be47943cae95597936705d3c614a]
link dcache to dbuild--><g id="link_dcache_dbuild"><path d="M609.94,491.99 C626.14,448.4 655.36,349.25 618,279 C578.75,205.2 491.66,158.06 429.99,132.59 " fill="none" id="dcache-to-dbuild" style="stroke:#181818;stroke-width:1.0;stroke-dasharray:7.0,7.0;"/><polygon fill="#181818" points="425.22,130.64,432.0456,137.74,429.8505,132.5265,435.064,130.3313,425.22,130.64" style="stroke:#181818;stroke-width:1.0;"/></g><!--MD5=[e019f6c902ebfb7972e81a9b9b7cc335]
link dbuild to updatesupa--><g id="link_dbuild_updatesupa"><path d="M398.69,131.14 C419.29,145.68 443.33,166.69 456,192 C476.51,232.96 488.15,285.31 493.76,316.66 " fill="none" id="dbuild-to-updatesupa" style="stroke:#181818;stroke-width:1.0;stroke-dasharray:7.0,7.0;"/><polygon fill="#181818" points="494.67,321.89,497.0688,312.3377,493.8133,316.9639,489.1871,313.7085,494.67,321.89" style="stroke:#181818;stroke-width:1.0;"/></g><!--MD5=[d9dbfc1b0c02a5025910323858478565]
link updatesupa to VM--><g id="link_updatesupa_VM"><path d="M494.81,368.31 C490.44,398.89 482.6,453.8 477.89,486.77 " fill="none" id="updatesupa-to-VM" style="stroke:#181818;stroke-width:1.0;"/><polygon fill="#181818" points="477.16,491.87,482.3825,483.5198,477.8611,486.9194,474.4615,482.398,477.16,491.87" style="stroke:#181818;stroke-width:1.0;"/><text fill="#000000" font-family="sans-serif" font-size="13" lengthAdjust="spacing" textLength="51" x="487" y="437.5684">Runs on</text></g><!--MD5=[763c4dc8aaf4a0752115fc53aca9ffa6]
@startuml

frame "GCP" {
    component [driver cache] as dcache
    component [driver bundles] as dbundles
    component VM
    component [support package cache] as supacache

    VM -.> supacache: Pushes created packages
}

frame OSCI {
    frame images {
        component [Drivers Build] as dbuild

        dbundles ..> dbuild
        [collector-slim] -> [collector-full]
        dbuild - -> [collector-full]
    }

    frame tests {
        component [integration tests] as its
        component [push drivers] as dpush
        component [update support package] as updatesupa

        [collector-full] - -> its
        dbuild - -> dpush
        dpush ..> dcache
        dcache ..> dbuild
        dbuild ..> updatesupa
        updatesupa - -> VM : Runs on
    }
}
@enduml

PlantUML version 1.2022.8(Sun Sep 25 11:00:33 CEST 2022)
(GPL source distribution)
Java Runtime: OpenJDK Runtime Environment
JVM: OpenJDK 64-Bit Server VM
Default Encoding: UTF-8
Language: en
Country: ES
--></g></svg>