<?xml version="1.0" encoding="UTF-8" standalone="no"?><svg xmlns="http://www.w3.org/2000/svg" xmlns:xlink="http://www.w3.org/1999/xlink" contentStyleType="text/css" height="610px" preserveAspectRatio="none" style="width:303px;height:610px;background:#FFFFFF;" version="1.1" viewBox="0 0 303 610" width="303px" zoomAndPan="magnify"><defs/><g><ellipse cx="152" cy="16" fill="#222222" rx="10" ry="10" style="stroke:none;stroke-width:1.0;"/><rect fill="#F1F1F1" height="34.1328" rx="12.5" ry="12.5" style="stroke:#181818;stroke-width:0.5;" width="114" x="95" y="66"/><text fill="#000000" font-family="sans-serif" font-size="12" lengthAdjust="spacing" textLength="94" x="105" y="87.6016">Prepare sources</text><rect fill="#F1F1F1" height="34.1328" rx="12.5" ry="12.5" style="stroke:#181818;stroke-width:0.5;" width="200" x="52" y="140"/><text fill="#000000" font-family="sans-serif" font-size="12" lengthAdjust="spacing" textLength="180" x="62" y="161.6016">Create a mock cache of drivers</text><rect fill="#F1F1F1" height="34.1328" rx="12.5" ry="12.5" style="stroke:#181818;stroke-width:0.5;" width="189" x="57.5" y="214"/><text fill="#000000" font-family="sans-serif" font-size="12" lengthAdjust="spacing" textLength="169" x="67.5" y="235.6016">Get the list of drivers to build</text><rect fill="#F1F1F1" height="34.1328" rx="12.5" ry="12.5" style="stroke:#181818;stroke-width:0.5;" width="228" x="38" y="288"/><text fill="#000000" font-family="sans-serif" font-size="12" lengthAdjust="spacing" textLength="208" x="48" y="309.6016">Figure out how many builders to run</text><rect fill="#F1F1F1" height="34.1328" rx="12.5" ry="12.5" style="stroke:#181818;stroke-width:0.5;" width="206" x="49" y="362"/><text fill="#000000" font-family="sans-serif" font-size="12" lengthAdjust="spacing" textLength="186" x="59" y="383.6016">Split kernels among the builders</text><rect fill="#F1F1F1" height="34.1328" rx="12.5" ry="12.5" style="stroke:#181818;stroke-width:0.5;" width="290" x="7" y="436"/><text fill="#000000" font-family="sans-serif" font-size="12" lengthAdjust="spacing" textLength="270" x="17" y="457.6016">Build needed builders and run them in parallel</text><rect fill="#F1F1F1" height="34.1328" rx="12.5" ry="12.5" style="stroke:#181818;stroke-width:0.5;" width="261" x="21.5" y="510"/><text fill="#000000" font-family="sans-serif" font-size="12" lengthAdjust="spacing" textLength="241" x="31.5" y="531.6016">Store built drivers and failures as artifacts</text><ellipse cx="152" cy="594" fill="none" rx="10" ry="10" style="stroke:#222222;stroke-width:1.0;"/><ellipse cx="152.5" cy="594.5" fill="#222222" rx="6" ry="6" style="stroke:none;stroke-width:1.0;"/><!--link start to Prepare sources--><g id="link_start_Prepare sources"><path d="M152,26.31 C152,34.88 152,47.94 152,59.25 " fill="none" id="start-to-Prepare sources" style="stroke:#181818;stroke-width:1.0;"/><polygon fill="#181818" points="152,64.16,156.0257,55.1715,152.0143,59.16,148.0257,55.1486,152,64.16" style="stroke:#181818;stroke-width:1.0;"/></g><!--link Prepare sources to Create a mock cache of drivers--><g id="link_Prepare sources_Create a mock cache of drivers"><path d="M152,100.34 C152,110.1 152,122.63 152,133.34 " fill="none" id="Prepare sources-to-Create a mock cache of drivers" style="stroke:#181818;stroke-width:1.0;"/><polygon fill="#181818" points="152,138.21,156,129.21,152,133.21,148,129.21,152,138.21" style="stroke:#181818;stroke-width:1.0;"/></g><!--link Create a mock cache of drivers to Get the list of drivers to build--><g id="link_Create a mock cache of drivers_Get the list of drivers to build"><path d="M152,174.34 C152,184.1 152,196.63 152,207.34 " fill="none" id="Create a mock cache of drivers-to-Get the list of drivers to build" style="stroke:#181818;stroke-width:1.0;"/><polygon fill="#181818" points="152,212.21,156,203.21,152,207.21,148,203.21,152,212.21" style="stroke:#181818;stroke-width:1.0;"/></g><!--link Get the list of drivers to build to Figure out how many builders to run--><g id="link_Get the list of drivers to build_Figure out how many builders to run"><path d="M152,248.34 C152,258.1 152,270.63 152,281.34 " fill="none" id="Get the list of drivers to build-to-Figure out how many builders to run" style="stroke:#181818;stroke-width:1.0;"/><polygon fill="#181818" points="152,286.21,156,277.21,152,281.21,148,277.21,152,286.21" style="stroke:#181818;stroke-width:1.0;"/></g><!--link Figure out how many builders to run to Split kernels among the builders--><g id="link_Figure out how many builders to run_Split kernels among the builders"><path d="M152,322.34 C152,332.1 152,344.63 152,355.34 " fill="none" id="Figure out how many builders to run-to-Split kernels among the builders" style="stroke:#181818;stroke-width:1.0;"/><polygon fill="#181818" points="152,360.21,156,351.21,152,355.21,148,351.21,152,360.21" style="stroke:#181818;stroke-width:1.0;"/></g><!--link Split kernels among the builders to Build needed builders and run them in parallel--><g id="link_Split kernels among the builders_Build needed builders and run them in parallel"><path d="M152,396.34 C152,406.1 152,418.63 152,429.34 " fill="none" id="Split kernels among the builders-to-Build needed builders and run them in parallel" style="stroke:#181818;stroke-width:1.0;"/><polygon fill="#181818" points="152,434.21,156,425.21,152,429.21,148,425.21,152,434.21" style="stroke:#181818;stroke-width:1.0;"/></g><!--link Build needed builders and run them in parallel to Store built drivers and failures as artifacts--><g id="link_Build needed builders and run them in parallel_Store built drivers and failures as artifacts"><path d="M152,470.34 C152,480.1 152,492.63 152,503.34 " fill="none" id="Build needed builders and run them in parallel-to-Store built drivers and failures as artifacts" style="stroke:#181818;stroke-width:1.0;"/><polygon fill="#181818" points="152,508.21,156,499.21,152,503.21,148,499.21,152,508.21" style="stroke:#181818;stroke-width:1.0;"/></g><!--link Store built drivers and failures as artifacts to end--><g id="link_Store built drivers and failures as artifacts_end"><path d="M152,544.4 C152,554.55 152,567.49 152,577.47 " fill="none" id="Store built drivers and failures as artifacts-to-end" style="stroke:#181818;stroke-width:1.0;"/><polygon fill="#181818" points="152,582.32,156,573.32,152,577.32,148,573.32,152,582.32" style="stroke:#181818;stroke-width:1.0;"/></g><!--SRC=[JOz13i8m30JlVSMAKwdKBt002Qv8lC0aRXkH9fNhWFWzAQI0v8kzursxRhPesnqsP-69X37798RdJVMU7eH96OGncXiCcO4HErXnTvOLEh52i-3Th7ygDEAQdBS5Exe-vO2O54DyOAJm_EY5bHGAUPcyKznO0liPDCRGlmDMkc3xfKLWjcn_JXJiOhKiZ701-IlodltghL4-JlezT5dfoFbyNcvoYRgEZ9QWkjbMBm00]--></g></svg>