<?xml version="1.0" encoding="UTF-8" standalone="no"?><svg xmlns="http://www.w3.org/2000/svg" xmlns:xlink="http://www.w3.org/1999/xlink" contentStyleType="text/css" height="683px" preserveAspectRatio="none" style="width:725px;height:683px;background:#FFFFFF;" version="1.1" viewBox="0 0 725 683" width="725px" zoomAndPan="magnify"><defs/><g><!--MD5=[6701fae3df526cca14a51b200d8bfe9a]
cluster GCP--><g id="cluster_GCP"><rect fill="none" height="220" rx="2.5" ry="2.5" style="stroke:#181818;stroke-width:1.0;" width="426" x="293" y="457"/><path d="M332,457 L332,466.4883 L322,476.4883 L293,476.4883 " fill="none" style="stroke:#181818;stroke-width:1.0;"/><text fill="#000000" font-family="sans-serif" font-size="14" font-weight="bold" lengthAdjust="spacing" textLength="29" x="296" y="471.5352">GCP</text></g><!--MD5=[acbf95ae80d0693cc6d8cb83815859b3]
cluster OSCI--><g id="cluster_OSCI"><rect fill="none" height="401" rx="2.5" ry="2.5" style="stroke:#181818;stroke-width:1.0;" width="635" x="7" y="7"/><path d="M52,7 L52,16.4883 L42,26.4883 L7,26.4883 " fill="none" style="stroke:#181818;stroke-width:1.0;"/><text fill="#000000" font-family="sans-serif" font-size="14" font-weight="bold" lengthAdjust="spacing" textLength="35" x="10" y="21.5352">OSCI</text></g><!--MD5=[05728344d6d7746cf5bd933e8bc19d4c]
cluster images--><g id="cluster_images"><rect fill="none" height="204" rx="2.5" ry="2.5" style="stroke:#181818;stroke-width:1.0;" width="332" x="57" y="50"/><path d="M119,50 L119,59.4883 L109,69.4883 L57,69.4883 " fill="none" style="stroke:#181818;stroke-width:1.0;"/><text fill="#000000" font-family="sans-serif" font-size="14" font-weight="bold" lengthAdjust="spacing" textLength="52" x="60" y="64.5352">images</text></g><!--MD5=[52a05effe668272d5671c3f0d259ac82]
cluster tests--><g id="cluster_tests"><rect fill="none" height="97" rx="2.5" ry="2.5" style="stroke:#181818;stroke-width:1.0;" width="587" x="31" y="287"/><path d="M77,287 L77,296.4883 L67,306.4883 L31,306.4883 " fill="none" style="stroke:#181818;stroke-width:1.0;"/><text fill="#000000" font-family="sans-serif" font-size="14" font-weight="bold" lengthAdjust="spacing" textLength="36" x="34" y="301.5352">tests</text></g><!--MD5=[7357bf0b102ac09de391a65b23a64b46]
entity dcache--><g id="elem_dcache"><rect fill="#F1F1F1" height="46.4883" rx="2.5" ry="2.5" style="stroke:#181818;stroke-width:0.5;" width="123" x="309.5" y="492"/><rect fill="#F1F1F1" height="10" style="stroke:#181818;stroke-width:0.5;" width="15" x="412.5" y="497"/><rect fill="#F1F1F1" height="2" style="stroke:#181818;stroke-width:0.5;" width="4" x="410.5" y="499"/><rect fill="#F1F1F1" height="2" style="stroke:#181818;stroke-width:0.5;" width="4" x="410.5" y="503"/><text fill="#000000" font-family="sans-serif" font-size="14" lengthAdjust="spacing" textLength="83" x="324.5" y="525.5352">driver cache</text></g><!--MD5=[744e66bce1f48bd974828a8425acc557]
entity dbundles--><g id="elem_dbundles"><rect fill="#F1F1F1" height="46.4883" rx="2.5" ry="2.5" style="stroke:#181818;stroke-width:0.5;" width="139" x="563.5" y="492"/><rect fill="#F1F1F1" height="10" style="stroke:#181818;stroke-width:0.5;" width="15" x="682.5" y="497"/><rect fill="#F1F1F1" height="2" style="stroke:#181818;stroke-width:0.5;" width="4" x="680.5" y="499"/><rect fill="#F1F1F1" height="2" style="stroke:#181818;stroke-width:0.5;" width="4" x="680.5" y="503"/><text fill="#000000" font-family="sans-serif" font-size="14" lengthAdjust="spacing" textLength="99" x="578.5" y="525.5352">driver bundles</text></g><!--MD5=[8ecc3956e019464df55f544a7bf7ffc9]
entity VM--><g id="elem_VM"><rect fill="#F1F1F1" height="46.4883" rx="2.5" ry="2.5" style="stroke:#181818;stroke-width:0.5;" width="61" x="467.5" y="492"/><rect fill="#F1F1F1" height="10" style="stroke:#181818;stroke-width:0.5;" width="15" x="508.5" y="497"/><rect fill="#F1F1F1" height="2" style="stroke:#181818;stroke-width:0.5;" width="4" x="506.5" y="499"/><rect fill="#F1F1F1" height="2" style="stroke:#181818;stroke-width:0.5;" width="4" x="506.5" y="503"/><text fill="#000000" font-family="sans-serif" font-size="14" lengthAdjust="spacing" textLength="21" x="482.5" y="525.5352">VM</text></g><!--MD5=[cfc0f20d50f2149d7bfabee033b3e3ce]
entity supacache--><g id="elem_supacache"><rect fill="#F1F1F1" height="46.4883" rx="2.5" ry="2.5" style="stroke:#181818;stroke-width:0.5;" width="198" x="399" y="615"/><rect fill="#F1F1F1" height="10" style="stroke:#181818;stroke-width:0.5;" width="15" x="577" y="620"/><rect fill="#F1F1F1" height="2" style="stroke:#181818;stroke-width:0.5;" width="4" x="575" y="622"/><rect fill="#F1F1F1" height="2" style="stroke:#181818;stroke-width:0.5;" width="4" x="575" y="626"/><text fill="#000000" font-family="sans-serif" font-size="14" lengthAdjust="spacing" textLength="158" x="414" y="648.5352">support package cache</text></g><!--MD5=[0f97029a618493d67e6347a0f6436d6e]
entity dbuild--><g id="elem_dbuild"><rect fill="#F1F1F1" height="46.4883" rx="2.5" ry="2.5" style="stroke:#181818;stroke-width:0.5;" width="126" x="247" y="85"/><rect fill="#F1F1F1" height="10" style="stroke:#181818;stroke-width:0.5;" width="15" x="353" y="90"/><rect fill="#F1F1F1" height="2" style="stroke:#181818;stroke-width:0.5;" width="4" x="351" y="92"/><rect fill="#F1F1F1" height="2" style="stroke:#181818;stroke-width:0.5;" width="4" x="351" y="96"/><text fill="#000000" font-family="sans-serif" font-size="14" lengthAdjust="spacing" textLength="86" x="262" y="118.5352">Drivers Build</text></g><!--MD5=[a12884c3246b20e54934b600a23acd07]
entity collector-slim--><g id="elem_collector-slim"><rect fill="#F1F1F1" height="46.4883" rx="2.5" ry="2.5" style="stroke:#181818;stroke-width:0.5;" width="135" x="73.5" y="192"/><rect fill="#F1F1F1" height="10" style="stroke:#181818;stroke-width:0.5;" width="15" x="188.5" y="197"/><rect fill="#F1F1F1" height="2" style="stroke:#181818;stroke-width:0.5;" width="4" x="186.5" y="199"/><rect fill="#F1F1F1" height="2" style="stroke:#181818;stroke-width:0.5;" width="4" x="186.5" y="203"/><text fill="#000000" font-family="sans-serif" font-size="14" lengthAdjust="spacing" textLength="95" x="88.5" y="225.5352">collector-slim</text></g><!--MD5=[e539599e5824ea488ad06f8d9563acd9]
entity collector-full--><g id="elem_collector-full"><rect fill="#F1F1F1" height="46.4883" rx="2.5" ry="2.5" style="stroke:#181818;stroke-width:0.5;" width="129" x="243.5" y="192"/><rect fill="#F1F1F1" height="10" style="stroke:#181818;stroke-width:0.5;" width="15" x="352.5" y="197"/><rect fill="#F1F1F1" height="2" style="stroke:#181818;stroke-width:0.5;" width="4" x="350.5" y="199"/><rect fill="#F1F1F1" height="2" style="stroke:#181818;stroke-width:0.5;" width="4" x="350.5" y="203"/><text fill="#000000" font-family="sans-serif" font-size="14" lengthAdjust="spacing" textLength="89" x="258.5" y="225.5352">collector-full</text></g><!--MD5=[15c36676860b13c48ab366d3564ae1e0]
entity its--><g id="elem_its"><rect fill="#F1F1F1" height="46.4883" rx="2.5" ry="2.5" style="stroke:#181818;stroke-width:0.5;" width="152" x="47" y="322"/><rect fill="#F1F1F1" height="10" style="stroke:#181818;stroke-width:0.5;" width="15" x="179" y="327"/><rect fill="#F1F1F1" height="2" style="stroke:#181818;stroke-width:0.5;" width="4" x="177" y="329"/><rect fill="#F1F1F1" height="2" style="stroke:#181818;stroke-width:0.5;" width="4" x="177" y="333"/><text fill="#000000" font-family="sans-serif" font-size="14" lengthAdjust="spacing" textLength="112" x="62" y="355.5352">integration tests</text></g><!--MD5=[3a825fca444f0a3b4231257726283052]
entity dpush--><g id="elem_dpush"><rect fill="#F1F1F1" height="46.4883" rx="2.5" ry="2.5" style="stroke:#181818;stroke-width:0.5;" width="125" x="234.5" y="322"/><rect fill="#F1F1F1" height="10" style="stroke:#181818;stroke-width:0.5;" width="15" x="339.5" y="327"/><rect fill="#F1F1F1" height="2" style="stroke:#181818;stroke-width:0.5;" width="4" x="337.5" y="329"/><rect fill="#F1F1F1" height="2" style="stroke:#181818;stroke-width:0.5;" width="4" x="337.5" y="333"/><text fill="#000000" font-family="sans-serif" font-size="14" lengthAdjust="spacing" textLength="85" x="249.5" y="355.5352">push drivers</text></g><!--MD5=[4bedd40ca94dd186e89a7014522dfc16]
entity updatesupa--><g id="elem_updatesupa"><rect fill="#F1F1F1" height="46.4883" rx="2.5" ry="2.5" style="stroke:#181818;stroke-width:0.5;" width="207" x="394.5" y="322"/><rect fill="#F1F1F1" height="10" style="stroke:#181818;stroke-width:0.5;" width="15" x="581.5" y="327"/><rect fill="#F1F1F1" height="2" style="stroke:#181818;stroke-width:0.5;" width="4" x="579.5" y="329"/><rect fill="#F1F1F1" height="2" style="stroke:#181818;stroke-width:0.5;" width="4" x="579.5" y="333"/><text fill="#000000" font-family="sans-serif" font-size="14" lengthAdjust="spacing" textLength="167" x="409.5" y="355.5352">update support package</text></g><!--MD5=[b0a952b465c99306f6b1098472279059]
link VM to supacache--><g id="link_VM_supacache"><path d="M498,538.19 C498,558.41 498,588.31 498,609.92 " fill="none" id="VM-to-supacache" style="stroke:#181818;stroke-width:1.0;"/><polygon fill="#181818" points="498,614.95,502,605.95,498,609.95,494,605.95,498,614.95" style="stroke:#181818;stroke-width:1.0;"/><text fill="#000000" font-family="sans-serif" font-size="13" lengthAdjust="spacing" textLength="157" x="499" y="581.5684">Pushes created packages</text></g><!--MD5=[49bdb30b9c507741873307fbd1a9a558]
link dbundles to dbuild--><g id="link_dbundles_dbuild"><path d="M638.12,491.8 C647.05,447.44 660.69,346.33 618,279 C563.94,193.74 451.3,147.71 378.25,125.8 " fill="none" id="dbundles-to-dbuild" style="stroke:#181818;stroke-width:1.0;"/><polygon fill="#181818" points="373.06,124.26,380.5451,130.6611,377.8523,125.6863,382.8271,122.9935,373.06,124.26" style="stroke:#181818;stroke-width:1.0;"/></g><!--MD5=[4a65ca9a36c08ff118088f38af591daf]
link collector-slim to collector-full--><g id="link_collector-slim_collector-full"><path d="M208.52,215 C218.45,215 228.37,215 238.3,215 " fill="none" id="collector-slim-to-collector-full" style="stroke:#181818;stroke-width:1.0;"/><polygon fill="#181818" points="243.49,215,234.49,211,238.49,215,234.49,219,243.49,215" style="stroke:#181818;stroke-width:1.0;"/></g><!--MD5=[c6f791be7e1f821e604e0e94c7202e05]
link dbuild to collector-full--><g id="link_dbuild_collector-full"><path d="M309.58,131.01 C309.27,147.14 308.85,169.15 308.52,186.45 " fill="none" id="dbuild-to-collector-full" style="stroke:#181818;stroke-width:1.0;"/><polygon fill="#181818" points="308.43,191.66,312.6092,182.7418,308.53,186.661,304.6108,182.5818,308.43,191.66" style="stroke:#181818;stroke-width:1.0;"/></g><!--MD5=[11571bce80f24c5b0a23444892dcf2ef]
link collector-slim to its--><g id="link_collector-slim_its"><path d="M137.91,238 C134.84,259.8 130.14,293.23 126.84,316.71 " fill="none" id="collector-slim-to-its" style="stroke:#181818;stroke-width:1.0;"/><polygon fill="#181818" points="126.11,321.85,131.3325,313.4998,126.8111,316.8994,123.4115,312.378,126.11,321.85" style="stroke:#181818;stroke-width:1.0;"/></g><!--MD5=[ce9c734977dbbf60e786c7809f6868ff]
link dbuild to dpush--><g id="link_dbuild_dpush"><path d="M341.17,131.31 C359.15,146.2 380.12,167.5 390,192 C401.64,220.85 402.8,233.64 390,262 C386.62,269.5 354.13,297.26 328.49,318.43 " fill="none" id="dbuild-to-dpush" style="stroke:#181818;stroke-width:1.0;"/><polygon fill="#181818" points="324.44,321.77,333.9264,319.1228,328.2951,318.586,328.832,312.9546,324.44,321.77" style="stroke:#181818;stroke-width:1.0;"/></g><!--MD5=[ec3e442ab35289260788a854c5933d1b]
link dpush to dcache--><g id="link_dpush_dcache"><path d="M306.83,368.31 C320.35,399.02 344.68,454.25 359.18,487.18 " fill="none" id="dpush-to-dcache" style="stroke:#181818;stroke-width:1.0;"/><polygon fill="#181818" points="361.25,491.87,361.2671,482.0212,359.2272,487.2974,353.951,485.2576,361.25,491.87" style="stroke:#181818;stroke-width:1.0;"/></g><!--MD5=[e019f6c902ebfb7972e81a9b9b7cc335]
link dbuild to updatesupa--><g id="link_dbuild_updatesupa"><path d="M344.02,131.21 C356.02,139.81 369.19,150.18 380,161 C427.7,208.72 466.24,278.86 485.21,316.95 " fill="none" id="dbuild-to-updatesupa" style="stroke:#181818;stroke-width:1.0;"/><polygon fill="#181818" points="487.65,321.89,487.2531,312.0491,485.4368,317.4065,480.0795,315.5903,487.65,321.89" style="stroke:#181818;stroke-width:1.0;"/></g><!--MD5=[d9dbfc1b0c02a5025910323858478565]
link updatesupa to VM--><g id="link_updatesupa_VM"><path d="M498,368.31 C498,398.89 498,453.8 498,486.77 " fill="none" id="updatesupa-to-VM" style="stroke:#181818;stroke-width:1.0;"/><polygon fill="#181818" points="498,491.87,502,482.87,498,486.87,494,482.87,498,491.87" style="stroke:#181818;stroke-width:1.0;"/><text fill="#000000" font-family="sans-serif" font-size="13" lengthAdjust="spacing" textLength="51" x="499" y="437.5684">Runs on</text></g><!--MD5=[1074019824d50b5b471c3e4ab4395d58]
@startuml

frame "GCP" {
    component [driver cache] as dcache
    component [driver bundles] as dbundles
    component VM
    component [support package cache] as supacache

    VM - -> supacache: Pushes created packages
}

frame OSCI {
    frame images {
        component [Drivers Build] as dbuild

        dbundles - -> dbuild
        [collector-slim] -> [collector-full]
        dbuild - -> [collector-full]
    }

    frame tests {
        component [integration tests] as its
        component [push drivers] as dpush
        component [update support package] as updatesupa

        [collector-slim] - -> its
        dbuild - -> dpush
        dpush - -> dcache
        dbuild - -> updatesupa
        updatesupa - -> VM : Runs on
    }
}
@enduml

PlantUML version 1.2022.7(Mon Aug 22 19:01:30 CEST 2022)
(GPL source distribution)
Java Runtime: OpenJDK Runtime Environment
JVM: OpenJDK 64-Bit Server VM
Default Encoding: UTF-8
Language: en
Country: ES
--></g></svg>